<?xml version="1.0" standalone="no"?>
<!DOCTYPE svg PUBLIC "-//W3C//DTD SVG 20010904//EN"
 "http://www.w3.org/TR/2001/REC-SVG-20010904/DTD/svg10.dtd">
<svg version="1.0" xmlns="http://www.w3.org/2000/svg"
 width="324.000000pt" height="320.000000pt" viewBox="0 0 324.000000 320.000000"
 preserveAspectRatio="xMidYMid meet">

<g transform="translate(0.000000,320.000000) scale(0.100000,-0.100000)"
fill="#000000" stroke="none">
<path d="M2263 3052 c-125 -76 -235 -141 -243 -145 -8 -4 -28 -16 -45 -27 -16
-11 -39 -24 -51 -29 -11 -5 -33 -24 -47 -41 -26 -30 -27 -36 -27 -154 0 -82
-4 -126 -12 -134 -8 -8 -53 -12 -136 -12 l-124 0 -34 -34 -34 -34 0 -186 0
-186 -32 -14 c-49 -20 -73 -53 -98 -134 -26 -86 -30 -85 -85 24 -59 116 -53
114 -336 114 l-236 0 -5 73 c-5 83 -23 118 -73 141 -27 13 -74 16 -268 16
-131 0 -247 -4 -262 -10 -14 -5 -37 -22 -50 -36 l-25 -27 0 -270 0 -270 36
-33 35 -34 268 0 267 0 31 30 c33 32 43 65 43 141 l0 49 190 0 190 0 25 -49
c16 -32 21 -52 15 -56 -6 -4 -48 3 -95 15 -94 25 -140 22 -173 -13 -11 -12
-50 -70 -86 -130 -54 -87 -66 -115 -66 -150 0 -40 4 -46 95 -132 l95 -91 0
-69 0 -69 -95 -91 c-91 -86 -95 -92 -95 -132 0 -35 12 -63 66 -150 36 -60 75
-118 86 -130 33 -35 79 -38 173 -13 47 12 89 19 95 15 6 -4 1 -24 -15 -56
l-25 -49 -190 0 -190 0 0 49 c0 76 -10 109 -43 141 l-31 30 -269 0 -269 0 -34
-34 -34 -34 0 -270 0 -269 25 -27 c13 -14 36 -31 50 -36 15 -6 131 -10 263
-10 211 0 241 2 271 18 49 26 71 73 71 149 l0 63 238 0 c284 0 278 -2 337 114
56 110 60 111 85 24 16 -53 31 -82 56 -106 l34 -32 146 0 c195 0 202 4 243
138 13 39 26 72 30 72 3 0 22 -30 41 -68 43 -82 65 -113 93 -129 16 -9 92 -12
258 -13 l237 0 6 -22 c3 -13 6 -48 6 -79 0 -46 5 -61 25 -83 13 -14 36 -31 50
-36 34 -13 486 -13 520 0 14 5 37 22 50 36 l25 27 0 272 0 273 -35 31 -36 31
-264 0 -264 0 -36 -31 c-33 -29 -35 -34 -35 -94 0 -102 14 -95 -200 -95 l-188
0 -21 40 c-23 44 -27 70 -11 70 6 0 47 -9 91 -21 132 -34 156 -22 246 126 7
11 17 29 23 40 6 11 19 34 29 50 11 17 20 49 20 75 1 44 -1 47 -94 136 l-95
91 0 68 0 68 95 91 c93 89 95 92 95 136 0 29 -8 57 -22 80 -29 46 -38 60 -72
117 -41 69 -75 102 -111 109 -19 3 -71 -5 -136 -21 -57 -15 -113 -27 -124 -27
-11 0 -50 16 -86 36 -64 35 -67 39 -84 94 -56 184 -57 186 -112 213 l-43 21 0
97 c0 109 6 121 60 121 51 0 60 -14 60 -91 0 -59 3 -70 28 -96 23 -24 375
-244 492 -306 19 -11 42 -24 50 -31 34 -26 80 -46 105 -46 31 0 50 10 370 202
138 83 262 164 278 181 l27 31 0 323 0 323 -32 34 c-18 19 -163 111 -322 205
-216 128 -297 171 -321 171 -25 0 -91 -35 -262 -138z m431 -204 c155 -92 182
-119 139 -135 -10 -4 -80 -44 -157 -90 -76 -46 -146 -83 -156 -81 -33 6 -320
183 -320 198 0 13 217 151 271 172 9 4 20 11 24 17 13 23 48 8 199 -81z m-527
-366 c43 -27 85 -52 93 -56 21 -9 50 -27 104 -61 l46 -29 0 -142 c0 -79 -3
-145 -7 -147 -5 -2 -81 41 -170 95 l-163 100 0 128 c0 113 5 160 15 160 2 0
39 -22 82 -48z m813 -108 l0 -130 -30 -22 c-16 -12 -31 -22 -33 -22 -2 0 -63
-36 -135 -79 -71 -44 -133 -77 -136 -74 -3 4 -6 70 -6 147 l0 141 162 97 c115
69 164 94 170 85 4 -7 8 -71 8 -143z m-2492 -423 c2 -77 -1 -107 -10 -113 -21
-13 -192 -10 -206 4 -13 13 -17 199 -5 212 4 3 54 5 112 4 l106 -3 3 -104z
m1191 -219 c34 -110 49 -129 131 -163 30 -12 81 -40 114 -61 62 -42 117 -51
174 -30 64 24 132 34 147 22 8 -7 15 -16 15 -20 0 -4 -35 -41 -77 -83 l-78
-77 -1 -162 -1 -163 78 -80 c44 -43 79 -82 79 -86 0 -4 -7 -12 -15 -19 -14
-12 -33 -9 -185 30 -46 12 -74 4 -140 -40 -30 -20 -80 -47 -110 -59 -82 -34
-97 -53 -131 -163 -29 -94 -31 -98 -58 -98 -26 0 -30 5 -45 58 -44 146 -56
163 -135 198 -30 14 -84 43 -120 66 -78 50 -98 51 -223 15 -85 -24 -88 -24
-104 -6 -10 11 -15 21 -13 24 2 2 38 39 80 82 l77 78 -1 155 c0 177 -1 180
-82 250 -71 62 -81 77 -60 100 15 17 20 16 103 -7 123 -36 146 -35 213 10 31
20 85 50 120 66 90 41 100 54 145 204 15 52 19 57 45 57 27 0 29 -4 58 -98z
m-1194 -1367 l0 -110 -110 0 -110 0 -3 99 c-2 65 1 103 9 112 9 11 35 14 113
12 l101 -3 0 -110z m2483 107 c9 -6 12 -36 10 -113 l-3 -104 -110 0 -110 0 -3
104 c-2 77 1 107 10 113 7 4 54 8 103 8 50 0 96 -4 103 -8z"/>
<path d="M1508 1475 c-130 -49 -228 -186 -228 -320 0 -100 63 -218 146 -276
68 -47 123 -62 212 -58 104 5 178 42 243 122 138 171 87 414 -109 513 -48 24
-71 29 -142 31 -54 2 -98 -3 -122 -12z m165 -223 c42 -28 56 -53 56 -97 1 -43
-17 -72 -61 -100 -38 -23 -89 -13 -128 26 -54 54 -37 136 35 173 39 21 64 20
98 -2z"/>
</g>
</svg>
