<?xml version="1.0" standalone="no"?>
<!DOCTYPE svg PUBLIC "-//W3C//DTD SVG 20010904//EN"
 "http://www.w3.org/TR/2001/REC-SVG-20010904/DTD/svg10.dtd">
<svg version="1.0" xmlns="http://www.w3.org/2000/svg"
 width="266.000000pt" height="238.000000pt" viewBox="0 0 266.000000 238.000000"
 preserveAspectRatio="xMidYMid meet">

<g transform="translate(0.000000,238.000000) scale(0.100000,-0.100000)"
fill="#000000" stroke="none">
<path d="M590 2355 c-468 -74 -684 -335 -460 -555 85 -83 249 -152 445 -186
134 -23 421 -24 557 -1 264 45 451 145 514 273 36 74 31 151 -16 224 -74 115
-270 208 -512 244 -129 20 -408 20 -528 1z"/>
<path d="M2325 1816 c-44 -20 -66 -47 -260 -316 -163 -226 -175 -246 -158
-258 10 -7 81 -58 157 -113 131 -94 141 -100 154 -82 110 146 364 507 372 528
33 87 -24 211 -113 244 -39 15 -116 13 -152 -3z"/>
<path d="M40 1513 l1 -158 42 -32 c159 -120 433 -186 772 -186 208 0 344 16
493 59 107 30 257 102 295 142 l28 29 -3 152 -3 152 -35 -27 c-53 -40 -226
-120 -309 -143 -201 -55 -532 -72 -753 -37 -180 28 -349 88 -460 164 -24 16
-49 32 -55 36 -10 6 -13 -27 -13 -151z"/>
<path d="M40 1049 c0 -132 8 -164 59 -221 97 -111 321 -185 630 -208 79 -6
145 -9 148 -7 2 3 -5 20 -16 38 -43 70 -18 191 48 238 16 11 69 35 117 52 84
29 144 56 144 63 0 1 -26 -1 -57 -6 -87 -13 -404 -12 -518 2 -201 24 -393 78
-512 145 l-43 24 0 -120z"/>
<path d="M1655 1131 c-44 -11 -73 -28 -145 -86 -137 -110 -289 -196 -442 -250
-111 -39 -113 -31 63 -248 14 -18 24 -19 80 -14 35 3 80 9 99 13 l35 7 -48
-52 c-27 -29 -47 -59 -45 -68 6 -31 281 -243 316 -243 5 0 32 20 60 45 27 25
52 45 55 45 2 0 -2 -26 -9 -58 -8 -31 -14 -63 -14 -70 0 -23 281 -142 335
-142 30 0 35 15 35 118 0 130 25 260 81 426 44 130 51 158 47 211 -6 98 -36
138 -186 247 -160 117 -225 141 -317 119z"/>
</g>
</svg>
